SplineFontDB: 3.0
FontName: Kepler-452b
FullName: Kepler 452b
FamilyName: Kepler
Weight: Medium
Copyright: Created by Sam Murphey,,, with FontForge 2.0 (http://fontforge.sf.net)
UComments: "2017-3-8: Created."
Version: 001.000
ItalicAngle: 0
UnderlinePosition: -100
UnderlineWidth: 50
Ascent: 800
Descent: 375
InvalidEm: 0
LayerCount: 2
Layer: 0 0 "Back" 1
Layer: 1 0 "Fore" 0
XUID: [1021 693 1088386991 4852375]
StyleMap: 0x0000
FSType: 0
OS2Version: 0
OS2_WeightWidthSlopeOnly: 0
OS2_UseTypoMetrics: 1
CreationTime: 1489043219
ModificationTime: 1534176721
OS2TypoAscent: 0
OS2TypoAOffset: 1
OS2TypoDescent: 0
OS2TypoDOffset: 1
OS2TypoLinegap: 106
OS2WinAscent: 0
OS2WinAOffset: 1
OS2WinDescent: 0
OS2WinDOffset: 1
HheadAscent: 0
HheadAOffset: 1
HheadDescent: 0
HheadDOffset: 1
OS2Vendor: 'PfEd'
MarkAttachClasses: 1
DEI: 91125
Encoding: ISO8859-1
UnicodeInterp: none
NameList: Adobe Glyph List
DisplaySize: -24
AntiAlias: 1
FitToEm: 1
WinInfo: 0 36 10
BeginPrivate: 0
EndPrivate
BeginChars: 256 179

StartChar: A
Encoding: 65 65 0
Width: 1000
VWidth: 0
HStem: 0 21G<100 150 850 900> 0 21G<100 150 850 900> 375 50<150 850> 750 50<150 850>
VStem: 100 50<0 375 425 750> 850 50<0 375 425 750>
LayerCount: 2
Fore
SplineSet
850 750 m 29x3c
 150 750 l 29
 150 425 l 29
 850 425 l 29
 850 750 l 29x3c
100 800 m 29
 900 800 l 29
 900 0 l 29
 850 0 l 29
 850 375 l 29
 150 375 l 29
 150 0 l 29
 100 0 l 29xbc
 100 800 l 29
EndSplineSet
Validated: 1
EndChar

StartChar: C
Encoding: 67 67 1
Width: 1000
VWidth: 0
HStem: 0 50<150 900> 750 50<150 900>
VStem: 100 50<50 750>
LayerCount: 2
Fore
SplineSet
100 800 m 29
 900 800 l 29
 900 750 l 29
 150 750 l 29
 150 50 l 29
 900 50 l 29
 900 0 l 29
 100 0 l 29
 100 800 l 29
EndSplineSet
Validated: 1
EndChar

StartChar: E
Encoding: 69 69 2
Width: 1000
VWidth: 0
HStem: 0 50<150 900> 375 50<150 525> 750 50<150 900>
VStem: 100 50<50 375 425 750>
CounterMasks: 1 e0
LayerCount: 2
Fore
SplineSet
100 800 m 29
 900 800 l 29
 900 750 l 29
 150 750 l 29
 150 425 l 29
 525 425 l 29
 525 375 l 29
 150 375 l 29
 150 50 l 29
 900 50 l 29
 900 0 l 29
 100 0 l 29
 100 800 l 29
EndSplineSet
Validated: 1
EndChar

StartChar: F
Encoding: 70 70 3
Width: 1000
VWidth: 0
Flags: W
HStem: 0 21G<100 150> 0 21G<100 150> 375 50<150 525> 750 50<150 900>
VStem: 100 50<0 375 425 750>
LayerCount: 2
Fore
SplineSet
100 800 m 25xb8
 900 800 l 25
 900 750 l 25
 150 750 l 25
 150 425 l 25
 525 425 l 25
 525 375 l 25
 150 375 l 25
 150 0 l 25
 100 0 l 25
 100 800 l 25xb8
EndSplineSet
Validated: 1
EndChar

StartChar: H
Encoding: 72 72 4
Width: 1000
VWidth: 0
HStem: 0 21G<100 150 850 900> 0 21G<100 150 850 900> 375 50<150 850> 780 20G<100 150 850 900>
VStem: 100 50<0 375 425 800> 850 50<0 375 425 800>
LayerCount: 2
Fore
SplineSet
100 800 m 25xbc
 150 800 l 25
 150 425 l 25
 850 425 l 29
 850 800 l 25
 900 800 l 25
 900 0 l 25
 850 0 l 25
 850 375 l 25
 150 375 l 25
 150 0 l 25
 100 0 l 25
 100 800 l 25xbc
EndSplineSet
Validated: 1
EndChar

StartChar: I
Encoding: 73 73 5
Width: 1000
VWidth: 0
HStem: 0 50<100 475 525 900> 750 50<100 475 525 900>
VStem: 475 50<50 750>
LayerCount: 2
Fore
SplineSet
100 800 m 29
 900 800 l 29
 900 750 l 29
 525 750 l 29
 525 50 l 29
 900 50 l 29
 900 0 l 29
 100 0 l 29
 100 50 l 29
 475 50 l 29
 475 750 l 29
 100 750 l 29
 100 800 l 29
EndSplineSet
Validated: 1
EndChar

StartChar: L
Encoding: 76 76 6
Width: 1000
VWidth: 0
HStem: 0 50<150 900> 780 20G<100 150>
VStem: 100 50<50 800>
LayerCount: 2
Fore
SplineSet
100 800 m 25
 150 800 l 25
 150 50 l 25
 900 50 l 25
 900 0 l 29
 100 0 l 25
 100 800 l 25
EndSplineSet
Validated: 1
EndChar

StartChar: O
Encoding: 79 79 7
Width: 1000
VWidth: 0
Flags: W
HStem: 0 50<150 850> 750 50<150 850>
VStem: 100 50<50 750> 850 50<50 750>
LayerCount: 2
Fore
SplineSet
850 750 m 29
 150 750 l 29
 150 50 l 29
 850 50 l 29
 850 750 l 29
100 800 m 29
 900 800 l 29
 900 0 l 29
 100 0 l 29
 100 800 l 29
EndSplineSet
Validated: 1
EndChar

StartChar: P
Encoding: 80 80 8
Width: 1000
VWidth: 0
HStem: 0 21G<100 150> 0 21G<100 150> 375 50<150 850> 750 50<150 850>
VStem: 100 50<0 375 425 750> 850 50<425 750>
LayerCount: 2
Fore
SplineSet
850 750 m 29x3c
 150 750 l 29
 150 425 l 29
 850 425 l 29
 850 750 l 29x3c
100 800 m 29
 900 800 l 29
 900 375 l 29
 150 375 l 29
 150 0 l 29
 100 0 l 29xbc
 100 800 l 29
EndSplineSet
Validated: 1
EndChar

StartChar: T
Encoding: 84 84 9
Width: 1000
VWidth: 0
HStem: 0 21G<475 525> 0 21G<475 525> 750 50<100 475 525 900>
VStem: 475 50<0 750>
LayerCount: 2
Fore
SplineSet
100 800 m 25xb0
 900 800 l 25
 900 750 l 25
 525 750 l 25
 525 0 l 29
 475 0 l 25
 475 750 l 25
 100 750 l 25
 100 800 l 25xb0
EndSplineSet
Validated: 1
EndChar

StartChar: B
Encoding: 66 66 10
Width: 1000
VWidth: 0
HStem: 0 50<150 850> 375 50<150 835> 750 50<150 510>
VStem: 100 50<50 375 425 750> 850 50<50 375>
CounterMasks: 1 e0
LayerCount: 2
Fore
SplineSet
510 750 m 25
 150 750 l 25
 150 425 l 25
 835 425 l 25
 510 750 l 25
850 375 m 25
 150 375 l 25
 150 50 l 25
 850 50 l 25
 850 375 l 25
100 800 m 25
 525 800 l 25
 900 425 l 25
 900 0 l 25
 100 0 l 25
 100 800 l 25
EndSplineSet
Validated: 1
EndChar

StartChar: D
Encoding: 68 68 11
Width: 1000
VWidth: 0
HStem: 0 50<150 850> 750 50<150 510>
VStem: 100 50<50 750> 850 50<50 410>
LayerCount: 2
Fore
SplineSet
510 750 m 29
 150 750 l 29
 150 50 l 29
 850 50 l 29
 850 410 l 29
 510 750 l 29
100 800 m 29
 525 800 l 29
 900 425 l 29
 900 0 l 29
 100 0 l 29
 100 800 l 29
EndSplineSet
Validated: 1
EndChar

StartChar: G
Encoding: 71 71 12
Width: 1000
VWidth: 0
HStem: 0 50<150 494> 375 50<475 781> 750 50<150 900>
VStem: 100 50<50 750>
CounterMasks: 1 e0
LayerCount: 2
Fore
SplineSet
100 800 m 25
 900 800 l 25
 900 750 l 25
 150 750 l 25
 150 50 l 25
 494 50 l 25
 781 375 l 25
 475 375 l 25
 475 425 l 25
 900 425 l 25
 525 0 l 25
 100 0 l 25
 100 800 l 25
EndSplineSet
Validated: 1
EndChar

StartChar: J
Encoding: 74 74 13
Width: 1000
VWidth: 0
HStem: 0 50<215 475> 750 50<100 475 525 900>
VStem: 475 50<50 310 375 750>
LayerCount: 2
Fore
SplineSet
475 310 m 25
 215 50 l 25
 475 50 l 25
 475 310 l 25
100 800 m 25
 900 800 l 25
 900 750 l 25
 525 750 l 25
 525 0 l 25
 100 0 l 25
 475 375 l 25
 475 750 l 25
 100 750 l 25
 100 800 l 25
EndSplineSet
Validated: 1
EndChar

StartChar: N
Encoding: 78 78 14
Width: 1000
VWidth: 0
HStem: 0 21G<100 150 830.69 900> 0 21G<100 150 830.69 900> 780 20G<100 169.31 850 900>
VStem: 100 50<0 725> 850 50<75 800>
LayerCount: 2
Fore
SplineSet
150 800 m 29xb8
 850 75 l 29
 850 800 l 29
 900 800 l 29
 900 0 l 29
 850 0 l 29
 150 725 l 29
 150 0 l 29
 100 0 l 29
 100 800 l 29
 150 800 l 29xb8
EndSplineSet
Validated: 1
EndChar

StartChar: Q
Encoding: 81 81 15
Width: 1000
VWidth: 0
HStem: 0 50<150 507> 750 50<150 850>
VStem: 100 50<50 750> 850 50<390 750>
LayerCount: 2
Fore
SplineSet
850 750 m 25
 150 750 l 25
 150 50 l 25
 507 50 l 25
 663 196 l 25
 492 360 l 25
 521 390 l 25
 697 229 l 25
 850 390 l 25
 850 750 l 25
100 800 m 25
 900 800 l 25
 900 375 l 25
 732 198 l 25
 900 33 l 25
 867 0 l 25
 698 166 l 25
 525 0 l 25
 100 0 l 25
 100 800 l 25
EndSplineSet
Validated: 1
EndChar

StartChar: S
Encoding: 83 83 16
Width: 1000
VWidth: 0
HStem: 0 50<100 475> 375 50<150 810> 750 50<150 900>
VStem: 100 50<425 750>
CounterMasks: 1 e0
LayerCount: 2
Fore
SplineSet
100 800 m 29
 900 800 l 29
 900 750 l 29
 150 750 l 29
 150 425 l 29
 900 425 l 29
 900 375 l 29
 525 0 l 29
 100 0 l 29
 100 50 l 29
 475 50 l 29
 810 375 l 29
 100 375 l 29
 100 800 l 29
EndSplineSet
Validated: 1
EndChar

StartChar: U
Encoding: 85 85 17
Width: 1000
VWidth: 0
Flags: H
HStem: 0 50<150 495> 780 20G<100 150 850 900>
VStem: 100 50<50 800> 850 50<405 800>
LayerCount: 2
Fore
SplineSet
100 800 m 29
 150 800 l 29
 150 405 l 29
 505 50 l 29
 850 50 l 29
 850 800 l 29
 900 800 l 29
 900 0 l 29
 475 0 l 29
 100 375 l 29
 100 800 l 29
EndSplineSet
Validated: 1
EndChar

StartChar: Z
Encoding: 90 90 18
Width: 1000
VWidth: 0
HStem: 0 50<185 900> 750 50<100 825>
LayerCount: 2
Fore
SplineSet
100 800 m 25
 900 800 l 25
 900 750 l 25
 185 50 l 25
 900 50 l 25
 900 0 l 25
 100 0 l 25
 100 50 l 25
 825 750 l 25
 100 750 l 25
 100 800 l 25
EndSplineSet
Validated: 1
EndChar

StartChar: V
Encoding: 86 86 19
Width: 1000
VWidth: 0
HStem: 0 21G<100 168.75> 0 21G<100 168.75> 780 20G<100 150 816.361 900>
VStem: 100 50<65 800>
LayerCount: 2
Fore
SplineSet
100 800 m 25xb0
 150 800 l 25
 150 65 l 25
 835 800 l 29
 900 800 l 25
 150 0 l 25
 100 0 l 25
 100 800 l 25xb0
EndSplineSet
Validated: 1
EndChar

StartChar: M
Encoding: 77 77 20
Width: 1000
VWidth: 0
HStem: 0 21G<100 169.58 850 900> 0 21G<100 169.58 850 900> 780 20G<100 169.178 830.822 900>
VStem: 100 50<80 725> 850 50<0 715>
LayerCount: 2
Fore
SplineSet
455 400 m 25x38
 150 725 l 25
 150 80 l 25
 455 400 l 25x38
100 800 m 25
 150 800 l 25
 500 435 l 25
 850 800 l 25
 900 800 l 25
 900 0 l 25
 850 0 l 25
 850 715 l 25
 150 0 l 25
 100 0 l 25xb8
 100 800 l 25
EndSplineSet
Validated: 1
EndChar

StartChar: W
Encoding: 87 87 21
Width: 1000
VWidth: 0
HStem: 0 21G<100 169.444 830.556 900> 780 20G<100 169.048 850 900>
VStem: 100 50<65 735> 850 50<65 800>
LayerCount: 2
Fore
SplineSet
460 399 m 25
 150 735 l 25
 150 65 l 25
 460 399 l 25
100 800 m 25
 150 800 l 25
 850 65 l 25
 850 800 l 25
 900 800 l 25
 900 0 l 25
 850 0 l 25
 500 360 l 29
 150 0 l 25
 100 0 l 25
 100 800 l 25
EndSplineSet
Validated: 1
EndChar

StartChar: X
Encoding: 88 88 22
Width: 1000
VWidth: 0
HStem: 0 21G<100 183.611 816.389 900> 0 21G<100 183.611 816.389 900> 780 20G<100 183.611 816.389 900>
LayerCount: 2
Fore
SplineSet
100 800 m 29xa0
 165 800 l 29
 500 440 l 29
 835 800 l 29
 900 800 l 29
 540 400 l 29
 900 0 l 29
 835 0 l 29
 500 360 l 29
 165 0 l 29
 100 0 l 29
 460 400 l 29
 100 800 l 29xa0
EndSplineSet
Validated: 1
EndChar

StartChar: Y
Encoding: 89 89 23
Width: 1000
VWidth: 0
HStem: 0 21G<475 525> 0 21G<475 525> 780 20G<100 184.42 815.58 900>
VStem: 475 50<0 400>
LayerCount: 2
Fore
SplineSet
100 800 m 29xb0
 165 800 l 29
 500 455 l 29
 835 800 l 29
 900 800 l 29
 525 400 l 29
 525 0 l 29
 475 0 l 29
 475 400 l 29
 100 800 l 29xb0
EndSplineSet
Validated: 1
EndChar

StartChar: ampersand
Encoding: 38 38 24
Width: 1000
VWidth: 0
HStem: 0 50<150 785> 375 50<165 455 525 900> 750 50<510 900>
VStem: 100 50<50 375>
CounterMasks: 1 e0
LayerCount: 2
Fore
SplineSet
785 50 m 25
 455 372 l 25
 150 375 l 25
 150 50 l 25
 785 50 l 25
475 800 m 25
 900 800 l 25
 900 750 l 25
 510 750 l 25
 165 425 l 25
 900 425 l 25
 900 375 l 25
 525 375 l 25
 900 0 l 25
 100 0 l 25
 100 440 l 25
 475 800 l 25
EndSplineSet
Validated: 1
EndChar

StartChar: zero
Encoding: 48 48 25
Width: 1000
VWidth: 0
HStem: 0 50<190 850> 750 50<150 810>
VStem: 100 50<90 750> 850 50<50 710>
LayerCount: 2
Fore
SplineSet
850 710 m 29
 190 50 l 29
 850 50 l 29
 850 710 l 29
810 750 m 29
 150 750 l 29
 150 90 l 29
 810 750 l 29
100 800 m 29
 900 800 l 29
 900 0 l 29
 100 0 l 29
 100 800 l 29
EndSplineSet
Validated: 1
EndChar

StartChar: one
Encoding: 49 49 26
Width: 1000
VWidth: 0
HStem: 0 50<100 475 525 900> 750 50<100 475>
VStem: 475 50<50 750>
LayerCount: 2
Fore
SplineSet
100 800 m 25
 525 800 l 25
 525 50 l 25
 900 50 l 25
 900 0 l 25
 100 0 l 25
 100 50 l 25
 475 50 l 25
 475 750 l 25
 100 750 l 25
 100 800 l 25
EndSplineSet
Validated: 1
EndChar

StartChar: two
Encoding: 50 50 27
Width: 1000
VWidth: 0
HStem: 0 50<150 900> 375 50<150 835> 750 50<100 510>
VStem: 100 50<50 375>
CounterMasks: 1 e0
LayerCount: 2
Fore
SplineSet
100 800 m 25
 525 800 l 25
 900 425 l 25
 900 375 l 25
 150 375 l 25
 150 50 l 25
 900 50 l 25
 900 0 l 25
 100 0 l 25
 100 425 l 25
 835 425 l 25
 510 750 l 29
 100 750 l 25
 100 800 l 25
EndSplineSet
Validated: 1
EndChar

StartChar: three
Encoding: 51 51 28
Width: 1000
VWidth: 0
HStem: 0 50<100 850> 375 50<475 850> 750 50<101 850>
VStem: 850 50<50 375 425 750>
CounterMasks: 1 e0
LayerCount: 2
Fore
SplineSet
100 800 m 25
 900 800 l 25
 900 0 l 25
 100 0 l 25
 100 50 l 25
 850 50 l 25
 850 375 l 25
 475 375 l 25
 475 425 l 25
 850 425 l 25
 850 750 l 29
 101 750 l 25
 100 800 l 25
EndSplineSet
Validated: 1
EndChar

StartChar: five
Encoding: 53 53 29
Width: 1000
VWidth: 0
HStem: 0 50<100 850> 375 50<150 850> 750 50<150 900>
VStem: 100 50<425 750> 850 50<50 375>
CounterMasks: 1 e0
LayerCount: 2
Fore
SplineSet
100 800 m 29
 900 800 l 29
 900 750 l 29
 150 750 l 29
 150 425 l 29
 900 425 l 29
 900 0 l 29
 100 0 l 29
 100 50 l 29
 850 50 l 29
 850 375 l 29
 100 375 l 29
 100 800 l 29
EndSplineSet
Validated: 1
EndChar

StartChar: six
Encoding: 54 54 30
Width: 1000
VWidth: 0
HStem: 0 50<150 850> 375 50<165 850> 750 50<490 900>
VStem: 100 50<50 375> 850 50<50 375>
CounterMasks: 1 e0
LayerCount: 2
Fore
SplineSet
850 375 m 25
 150 375 l 25
 150 50 l 25
 850 50 l 25
 850 375 l 25
475 800 m 25
 900 800 l 25
 900 750 l 25
 490 750 l 25
 165 425 l 25
 900 425 l 25
 900 0 l 25
 100 0 l 25
 100 425 l 25
 475 800 l 25
EndSplineSet
Validated: 1
EndChar

StartChar: eight
Encoding: 56 56 31
Width: 1000
VWidth: 0
HStem: 0 50<150 850> 375 50<150 850> 750 50<150 850>
VStem: 100 50<50 375 425 750> 850 50<50 375 425 750>
CounterMasks: 1 e0
LayerCount: 2
Fore
SplineSet
850 375 m 25
 150 375 l 25
 150 50 l 25
 850 50 l 25
 850 375 l 25
850 750 m 25
 150 750 l 25
 150 425 l 25
 850 425 l 25
 850 750 l 25
100 800 m 25
 900 800 l 25
 900 0 l 25
 100 0 l 25
 100 800 l 25
EndSplineSet
Validated: 1
EndChar

StartChar: nine
Encoding: 57 57 32
Width: 1000
VWidth: 0
HStem: 0 50<100 523> 375 50<150 835> 750 50<150 850>
VStem: 100 50<425 750> 850 50<425 750>
CounterMasks: 1 e0
LayerCount: 2
Fore
SplineSet
850 750 m 25
 150 750 l 25
 150 425 l 25
 850 425 l 29
 850 750 l 25
100 800 m 25
 900 800 l 25
 900 375 l 25
 540 0 l 25
 100 0 l 25
 100 50 l 25
 523 50 l 25
 835 375 l 25
 100 375 l 25
 100 800 l 25
EndSplineSet
Validated: 1
EndChar

StartChar: seven
Encoding: 55 55 33
Width: 1000
VWidth: 0
HStem: 0 21G<850 900> 0 21G<850 900> 750 50<100 850>
VStem: 850 50<0 750>
LayerCount: 2
Fore
SplineSet
100 800 m 25xb0
 900 800 l 25
 900 0 l 25
 850 0 l 25
 850 750 l 29
 100 750 l 25
 100 800 l 25xb0
EndSplineSet
Validated: 1
EndChar

StartChar: less
Encoding: 60 60 34
Width: 1000
VWidth: 0
Flags: H
HStem: 0 21G<860 900> 0 21G<860 900> 780 20G<860 900>
LayerCount: 2
Fore
SplineSet
100 400 m 25xa0
 900 800 l 25
 900 750 l 25
 225 400 l 25
 900 50 l 25
 900 0 l 25
 100 400 l 25xa0
EndSplineSet
EndChar

StartChar: greater
Encoding: 62 62 35
Width: 1000
VWidth: 0
Flags: H
HStem: 0 21G<100 140> 0 21G<100 140> 780 20G<100 140>
LayerCount: 2
Fore
SplineSet
100 800 m 29xa0
 900 400 l 29
 100 0 l 29
 100 65 l 29
 775 400 l 29
 100 735 l 29
 100 800 l 29xa0
EndSplineSet
EndChar

StartChar: question
Encoding: 63 63 36
Width: 1000
VWidth: 0
InSpiro: 1
HStem: 0 21G<475 525> 0 21G<475 525> 375 50<525 850> 750 50<490 850>
VStem: 475 50<0 150 235 375> 850 50<425 750>
LayerCount: 2
Fore
SplineSet
100 425 m 1x3c
 475 800 l 1
 900 800 l 1
 900 375 l 1
 525 375 l 1
 525 235 l 1
 475 235 l 1
 474 425 l 1
 850 425 l 1
 850 750 l 1
 490 750 l 1
 165 425 l 1
 100 425 l 1x3c
  Spiro
    100 425 v
    475 800 v
    900 800 v
    900 375 v
    525 375 v
    525 235 v
    475 235 v
    474 425 v
    850 425 v
    850 750 v
    490 750 v
    165 425 v
    0 0 z
  EndSpiro
475 0 m 1xbc
 475 150 l 1
 525 150 l 1
 525 0 l 1
 475 0 l 1xbc
  Spiro
    475 0 v
    475 150 v
    525 150 v
    525 0 v
    0 0 z
  EndSpiro
EndSplineSet
Validated: 1
EndChar

StartChar: R
Encoding: 82 82 37
Width: 1000
VWidth: 0
HStem: 0 21G<100 150> 0 21G<100 150> 375 50<165 850> 750 50<150 850>
VStem: 100 50<0 325 425 750> 850 50<425 750>
LayerCount: 2
Fore
SplineSet
850 750 m 29x3c
 150 750 l 29
 150 425 l 29
 850 425 l 29
 850 750 l 29x3c
100 800 m 29
 900 800 l 29
 900 375 l 29
 165 375 l 29
 899 -200 l 29
 820 -200 l 29
 150 325 l 29
 150 0 l 29
 100 0 l 29xbc
 100 800 l 29
EndSplineSet
Validated: 1
EndChar

StartChar: K
Encoding: 75 75 38
Width: 1000
VWidth: 0
HStem: 0 21G<100 150 471.111 555> 780 20G<100 150>
VStem: 100 50<0 360 425 800>
LayerCount: 2
Fore
SplineSet
100 800 m 25
 150 800 l 25
 150 425 l 25
 835 1175 l 29
 900 1175 l 29
 200 400 l 25
 555 0 l 17
 533.333007812 0 511.666992188 0 490 0 c 9
 150 360 l 25
 150 0 l 25
 100 0 l 25
 100 800 l 25
EndSplineSet
Validated: 1
EndChar

StartChar: backslash
Encoding: 92 92 39
Width: 1000
VWidth: 0
HStem: 0 21G<816.625 900> 0 21G<816.625 900> 780 20G<100 183.375>
LayerCount: 2
Fore
SplineSet
100 800 m 25xa0
 165 800 l 25
 900 0 l 25
 835 0 l 25
 100 800 l 25xa0
EndSplineSet
Validated: 1
EndChar

StartChar: bracketleft
Encoding: 91 91 40
Width: 1000
VWidth: 0
HStem: 0 50<475 575> 750 50<475 575>
VStem: 425 150<0 50 750 800> 425 50<50 750>
LayerCount: 2
Fore
SplineSet
425 800 m 25xe0
 575 800 l 25
 575 750 l 25xe0
 475 750 l 25
 475 50 l 25xd0
 575 50 l 25
 575 0 l 25
 425 0 l 25
 425 800 l 25xe0
EndSplineSet
Validated: 1
EndChar

StartChar: bracketright
Encoding: 93 93 41
Width: 1000
VWidth: 0
HStem: 0 50<425 525> 750 50<425 525>
VStem: 425 150<0 50 750 800> 525 50<50 750>
LayerCount: 2
Fore
SplineSet
425 800 m 29xe0
 575 800 l 29
 575 0 l 29
 425 0 l 29
 425 50 l 29xe0
 525 50 l 29
 525 750 l 29xd0
 425 750 l 29
 425 800 l 29xe0
EndSplineSet
Validated: 1
EndChar

StartChar: plus
Encoding: 43 43 42
Width: 1000
VWidth: 0
Flags: W
HStem: 0 21G<475 525> 0 21G<475 525> 375 50<100 475 525 900> 780 20G<475 525>
VStem: 475 50<0 375 425 800>
LayerCount: 2
Fore
SplineSet
475 800 m 29xb8
 525 800 l 29
 525 425 l 29
 900 425 l 29
 900 375 l 29
 525 375 l 29
 525 0 l 29
 475 0 l 29
 475 375 l 29
 100 375 l 29
 100 425 l 29
 475 425 l 29
 475 800 l 29xb8
EndSplineSet
Validated: 1
EndChar

StartChar: exclam
Encoding: 33 33 43
Width: 1000
VWidth: 0
Flags: H
HStem: 0 21G<475 525> 0 21G<475 525> 780 20G<475 525>
VStem: 475 50<0 150 250 800>
LayerCount: 2
Fore
SplineSet
475 150 m 25xb0
 525 150 l 25
 525 0 l 25
 475 0 l 25
 475 150 l 25xb0
475 800 m 25
 525 800 l 25
 525 300 l 25
 475 300 l 25
 475 800 l 25
EndSplineSet
EndChar

StartChar: numbersign
Encoding: 35 35 44
Width: 1000
VWidth: 0
Flags: W
HStem: 0 21G<334 383 617 666> 0 21G<334 383 617 666> 235 49<100 334 383 617 666 900> 517 49<100 334 383 617 666 900> 780 20G<334 383 617 666>
VStem: 334 49<0 235 284 517 566 800> 617 49<0 235 284 517 566 800>
LayerCount: 2
Fore
SplineSet
617 517 m 25x3e
 383 517 l 25
 383 284 l 25
 617 284 l 25
 617 517 l 25x3e
334 800 m 25
 383 800 l 25
 383 566 l 25
 617 566 l 25
 617 800 l 25
 666 800 l 25
 666 566 l 25
 900 566 l 25
 900 517 l 25
 666 517 l 25
 666 284 l 25
 900 284 l 25
 900 235 l 25
 666 235 l 25
 666 0 l 25
 617 0 l 25
 617 235 l 25
 383 235 l 25
 383 0 l 25
 334 0 l 25xbe
 334 235 l 25
 100 235 l 29
 100 284 l 25
 334 284 l 25
 334 517 l 25
 100 517 l 25
 100 566 l 25
 334 566 l 25
 334 800 l 25
EndSplineSet
Validated: 1
EndChar

StartChar: slash
Encoding: 47 47 45
Width: 1000
VWidth: 0
HStem: 0 21G<100 183.375> 0 21G<100 183.375> 780 20G<816.625 900>
LayerCount: 2
Fore
SplineSet
835 800 m 29xa0
 900 800 l 29
 165 0 l 29
 100 0 l 29
 835 800 l 29xa0
EndSplineSet
Validated: 1
EndChar

StartChar: hyphen
Encoding: 45 45 46
Width: 1000
VWidth: 0
HStem: 375 50<100 900>
LayerCount: 2
Fore
SplineSet
100 425 m 29
 900 425 l 29
 900 375 l 29
 100 375 l 29
 100 425 l 29
EndSplineSet
Validated: 1
EndChar

StartChar: dollar
Encoding: 36 36 47
Width: 1000
VWidth: 0
Flags: W
HStem: 0 21G<475 525> 0 21G<475 525> 100 50<100 475 525 850> 375 50<150 475 525 850> 650 50<150 475 525 900> 780 20G<475 525>
VStem: 100 50<425 650> 475 50<0 100 150 375 425 650 700 800> 850 50<150 375>
CounterMasks: 1 0380
LayerCount: 2
Fore
SplineSet
850 375 m 25x3f80
 525 375 l 25
 525 150 l 25
 850 150 l 25
 850 375 l 25x3f80
475 650 m 25
 150 650 l 25
 150 425 l 25
 475 425 l 25
 475 650 l 25
475 700 m 25
 475 800 l 25
 525 800 l 25
 525 700 l 25
 900 700 l 25
 900 650 l 25
 525 650 l 25
 525 425 l 25
 900 425 l 25
 900 100 l 25
 525 100 l 25
 525 0 l 25
 475 0 l 25xbf80
 475 100 l 25
 100 100 l 25
 100 150 l 25
 475 150 l 25
 475 375 l 25
 100 375 l 25
 100 700 l 25
 475 700 l 25
EndSplineSet
Validated: 1
EndChar

StartChar: four
Encoding: 52 52 48
Width: 1000
VWidth: 0
HStem: 0 21G<475 525> 0 21G<475 525> 375 50<165 475 525 900> 780 20G<440.274 525>
VStem: 475 50<0 375 427 735>
LayerCount: 2
Fore
SplineSet
475 735 m 25x38
 165 425 l 25
 475 427 l 25
 475 735 l 25x38
460 800 m 25
 525 800 l 25
 525 425 l 25
 900 425 l 25
 900 375 l 25
 525 375 l 25
 525 0 l 25
 475 0 l 25xb8
 475 375 l 25
 100 375 l 25
 100 435 l 25
 460 800 l 25
EndSplineSet
Validated: 1
EndChar

StartChar: underscore
Encoding: 95 95 49
Width: 1000
VWidth: 0
HStem: 0 50<100 900>
LayerCount: 2
Fore
SplineSet
100 50 m 29
 900 50 l 25
 900 0 l 25
 100 0 l 25
 100 50 l 29
EndSplineSet
Validated: 1
EndChar

StartChar: period
Encoding: 46 46 50
Width: 1000
VWidth: 0
Flags: H
HStem: 0 150
VStem: 475 50<0 150>
LayerCount: 2
Fore
SplineSet
475 0 m 29
 475 150 l 29
 525 150 l 29
 525 0 l 29
 475 0 l 29
EndSplineSet
EndChar

StartChar: equal
Encoding: 61 61 51
Width: 1000
VWidth: 0
HStem: 235 49<100 900> 517 49<100 900>
LayerCount: 2
Fore
SplineSet
100 284 m 25
 900 284 l 25
 900 235 l 29
 100 235 l 25
 100 284 l 25
100 566 m 25
 900 566 l 25
 900 517 l 25
 100 517 l 25
 100 566 l 25
EndSplineSet
Validated: 1
EndChar

StartChar: colon
Encoding: 58 58 52
Width: 1000
VWidth: 0
HStem: 0 21G<475 525> 0 21G<475 525> 780 20G<475 525>
VStem: 475 50<0 150 650 800>
LayerCount: 2
Fore
SplineSet
475 800 m 25x30
 525 800 l 25
 525 650 l 25
 475 650 l 25
 475 800 l 25x30
475 0 m 25xb0
 475 150 l 25
 525 150 l 25
 525 0 l 25
 475 0 l 25xb0
EndSplineSet
Validated: 1
EndChar

StartChar: asciicircum
Encoding: 94 94 53
Width: 1000
VWidth: 0
HStem: 780 20G<480 520>
LayerCount: 2
Fore
SplineSet
100 400 m 29
 500 800 l 29
 900 400 l 29
 835 400 l 29
 500 735 l 29
 165 400 l 29
 100 400 l 29
EndSplineSet
Validated: 1
EndChar

StartChar: percent
Encoding: 37 37 54
Width: 1000
VWidth: 0
HStem: 0 50<666 850> 234 50<666 850> 516 50<150 334> 750 50<150 334>
VStem: 100 50<566 750> 334 50<566 750> 616 50<50 234> 850 50<50 234>
LayerCount: 2
Fore
SplineSet
850 50 m 25
 850 234 l 25
 666 234 l 25
 666 50 l 25
 850 50 l 25
334 750 m 25
 150 750 l 25
 150 566 l 29
 334 566 l 25
 334 750 l 25
100 800 m 25
 384 800 l 25
 384 516 l 25
 100 516 l 25
 100 800 l 25
616 284 m 25
 900 284 l 25
 900 0 l 25
 616 0 l 25
 616 284 l 25
835 800 m 25
 900 800 l 25
 165 0 l 25
 100 0 l 25
 835 800 l 25
EndSplineSet
Validated: 1
EndChar

StartChar: i
Encoding: 105 105 55
Width: 1000
VWidth: 0
Flags: H
HStem: 0 21G<475 525> 0 21G<475 525> 780 20G<475 525>
VStem: 475 50<0 566 650 800>
LayerCount: 2
Fore
SplineSet
475 800 m 29x30
 525 800 l 29
 525 650 l 29
 475 650 l 29
 475 800 l 29x30
475 500 m 29
 525 500 l 29
 525 0 l 29
 475 0 l 29xb0
 475 500 l 29
EndSplineSet
EndChar

StartChar: j
Encoding: 106 106 56
Width: 1000
VWidth: 0
HStem: 0 50<207 475> 780 20G<475 525>
VStem: 475 50<50 345 425 566 650 800>
LayerCount: 2
Fore
SplineSet
475 345 m 25
 207 50 l 25
 475 50 l 25
 475 345 l 25
475 566 m 25
 525 566 l 25
 525 0 l 25
 100 0 l 25
 475 425 l 25
 475 566 l 25
475 800 m 25
 525 800 l 25
 525 650 l 25
 475 650 l 25
 475 800 l 25
EndSplineSet
Validated: 1
EndChar

StartChar: h
Encoding: 104 104 57
Width: 1000
VWidth: 0
HStem: 0 21G<100 150 850 900> 375 50<150 850> 780 20G<100 150>
VStem: 100 50<0 375 425 800> 850 50<0 375>
LayerCount: 2
Fore
SplineSet
100 800 m 25
 150 800 l 25
 150 425 l 25
 900 425 l 25
 900 0 l 25
 850 0 l 25
 850 375 l 25
 150 375 l 25
 150 0 l 25
 100 0 l 25
 100 800 l 25
EndSplineSet
Validated: 1
EndChar

StartChar: l
Encoding: 108 108 58
Width: 1000
VWidth: 0
HStem: 0 21G<475 525> 780 20G<475 525>
VStem: 475 50<0 800>
LayerCount: 2
Fore
SplineSet
475 800 m 25
 525 800 l 25
 525 0 l 25
 475 0 l 25
 475 800 l 25
EndSplineSet
Validated: 1
EndChar

StartChar: t
Encoding: 116 116 59
Width: 1000
VWidth: 0
Flags: H
HStem: 0 21G<475 525> 517 49<100 475 525 900> 780 20G<475 525>
VStem: 475 50<0 517 566 800>
LayerCount: 2
Fore
SplineSet
475 800 m 25
 525 800 l 25
 525 425 l 29
 900 425 l 25
 900 375 l 25
 525 375 l 25
 525 0 l 25
 475 0 l 25
 475 375 l 25
 100 375 l 25
 100 425 l 25
 475 425 l 25
 475 800 l 25
EndSplineSet
Validated: 1
EndChar

StartChar: bar
Encoding: 124 124 60
Width: 1000
VWidth: 0
HStem: 0 21G<475 525> 780 20G<475 525>
VStem: 475 50<0 800>
LayerCount: 2
Fore
SplineSet
475 800 m 25
 525 800 l 25
 525 0 l 29
 475 0 l 25
 475 800 l 25
EndSplineSet
Validated: 1
EndChar

StartChar: asciitilde
Encoding: 126 126 61
Width: 1000
VWidth: 0
Flags: HW
HStem: 230 341
VStem: 475 50<289 512>
LayerCount: 2
Fore
SplineSet
100 230 m 25
 355 570 l 25
 405 570 l 25
 620 284 l 25
 836 570 l 25
 900 570 l 25
 645 230 l 25
 595 230 l 25
 380 517 l 25
 165 230 l 25
 100 230 l 25
EndSplineSet
EndChar

StartChar: g
Encoding: 103 103 62
Width: 1000
VWidth: 0
Flags: MW
LayerCount: 2
Fore
SplineSet
850 375 m 25
 150 375 l 25
 150 50 l 25
 850 50 l 25
 850 375 l 25
100 425 m 25
 900 425 l 25
 900 -375 l 25
 100 -375 l 25
 100 -325 l 25
 850 -325 l 25
 850 0 l 25
 100 0 l 25
 100 425 l 25
EndSplineSet
Validated: 1
EndChar

StartChar: o
Encoding: 111 111 63
Width: 1000
VWidth: 0
Flags: W
HStem: 0 50<150 850> 375 50<150 850>
VStem: 100 50<50 375> 850 50<50 375>
LayerCount: 2
Fore
SplineSet
850 375 m 29
 150 375 l 29
 150 50 l 29
 850 50 l 29
 850 375 l 29
100 0 m 29
 100 425 l 29
 900 425 l 29
 900 0 l 29
 100 0 l 29
EndSplineSet
Validated: 1
EndChar

StartChar: p
Encoding: 112 112 64
Width: 1000
VWidth: 0
Flags: W
HStem: -375 21G<100 150> 0 50<150 850> 375 50<150 850>
VStem: 100 50<-375 0 50 375> 850 50<50 375>
LayerCount: 2
Fore
SplineSet
850 375 m 25
 150 375 l 25
 150 50 l 25
 850 50 l 25
 850 375 l 25
100 425 m 25
 900 425 l 25
 900 0 l 25
 150 0 l 25
 150 -375 l 25
 100 -375 l 25
 100 425 l 25
EndSplineSet
Validated: 1
EndChar

StartChar: q
Encoding: 113 113 65
Width: 1000
VWidth: 0
Flags: W
HStem: -375 21G<850 900> 0 50<150 850> 370 55<150 850>
VStem: 100 50<50 370> 850 50<-375 0 50 375>
LayerCount: 2
Fore
SplineSet
850 375 m 25
 150 370 l 29
 150 50 l 25
 850 50 l 25
 850 375 l 25
100 425 m 25
 900 425 l 25
 900 -375 l 25
 850 -375 l 25
 850 0 l 25
 100 0 l 25
 100 425 l 25
EndSplineSet
Validated: 1
EndChar

StartChar: u
Encoding: 117 117 66
Width: 1000
VWidth: 0
Flags: W
HStem: 0 50<150 850> 405 20G<100 150 850 900>
VStem: 100 50<50 425> 850 50<50 425>
LayerCount: 2
Fore
SplineSet
100 425 m 29
 150 425 l 29
 150 50 l 29
 850 50 l 29
 850 425 l 29
 900 425 l 29
 900 0 l 29
 100 0 l 29
 100 425 l 29
EndSplineSet
Validated: 1
EndChar

StartChar: a
Encoding: 97 97 67
Width: 1000
VWidth: 0
Flags: W
HStem: 0 50<150 850> 187 50<150 850> 375 50<100 850>
VStem: 100 50<50 187> 850 50<50 187 237 375>
LayerCount: 2
Fore
SplineSet
850 187 m 29
 150 187 l 29
 150 50 l 29
 850 50 l 29
 850 187 l 29
100 425 m 29
 900 425 l 29
 900 0 l 29
 100 0 l 29
 100 237 l 29
 850 237 l 29
 850 375 l 29
 100 375 l 29
 100 425 l 29
EndSplineSet
Validated: 1
EndChar

StartChar: m
Encoding: 109 109 68
Width: 1000
VWidth: 0
Flags: W
HStem: 0 21G<100 150 475 525 850 900> 375 50<150 475 523 850>
VStem: 100 50<0 375> 475 50<0 375> 850 50<0 375>
CounterMasks: 1 38
LayerCount: 2
Fore
SplineSet
100 0 m 25
 100 425 l 25
 900 425 l 25
 900 0 l 25
 850 0 l 25
 850 375 l 25
 523 375 l 25
 525 0 l 25
 475 0 l 25
 475 375 l 25
 150 375 l 25
 150 0 l 25
 100 0 l 25
EndSplineSet
Validated: 1
EndChar

StartChar: n
Encoding: 110 110 69
Width: 1000
VWidth: 0
Flags: W
HStem: 0 21G<100 150 850 900> 375 50<150 850>
VStem: 100 50<0 375> 850 50<0 375>
LayerCount: 2
Fore
SplineSet
100 0 m 29
 100 425 l 29
 900 425 l 29
 900 0 l 29
 850 0 l 29
 850 375 l 29
 150 375 l 29
 150 0 l 29
 100 0 l 29
EndSplineSet
Validated: 1
EndChar

StartChar: r
Encoding: 114 114 70
Width: 1000
VWidth: 0
Flags: W
HStem: 0 21G<100 150> 375 50<150 900>
VStem: 100 50<0 375>
LayerCount: 2
Fore
SplineSet
100 0 m 25
 100 425 l 25
 900 425 l 25
 900 375 l 25
 150 375 l 25
 150 0 l 25
 100 0 l 25
EndSplineSet
Validated: 1
EndChar

StartChar: b
Encoding: 98 98 71
Width: 1000
VWidth: 0
Flags: W
HStem: 0 50<150 850> 375 50<150 850> 780 20G<100 150>
VStem: 100 50<50 375 425 800> 850 50<50 375>
LayerCount: 2
Fore
SplineSet
850 375 m 25
 150 375 l 25
 150 50 l 25
 850 50 l 25
 850 375 l 25
100 800 m 25
 150 800 l 25
 150 425 l 25
 900 425 l 25
 900 0 l 25
 100 0 l 25
 100 800 l 25
EndSplineSet
Validated: 1
EndChar

StartChar: c
Encoding: 99 99 72
Width: 1000
VWidth: 0
Flags: W
HStem: 0 50<150 900> 375 50<150 900>
VStem: 100 50<50 375>
LayerCount: 2
Fore
SplineSet
100 425 m 29
 900 425 l 29
 900 375 l 29
 150 375 l 29
 150 50 l 29
 900 50 l 29
 900 0 l 29
 100 0 l 29
 100 425 l 29
EndSplineSet
Validated: 1
EndChar

StartChar: d
Encoding: 100 100 73
Width: 1000
VWidth: 0
Flags: W
HStem: 0 50<150 850> 375 50<150 850> 780 20G<850 900>
VStem: 100 50<50 375> 850 50<50 375 425 800>
LayerCount: 2
Fore
SplineSet
850 375 m 29
 150 375 l 29
 150 50 l 29
 850 50 l 29
 850 375 l 29
100 425 m 29
 850 425 l 29
 850 800 l 29
 900 800 l 29
 900 0 l 29
 100 0 l 29
 100 425 l 29
EndSplineSet
Validated: 1
EndChar

StartChar: e
Encoding: 101 101 74
Width: 1000
VWidth: 0
Flags: W
HStem: 0 50<150 900> 187 50<150 850> 375 50<150 850>
VStem: 100 50<50 187 237 375> 850 50<237 375>
LayerCount: 2
Fore
SplineSet
850 375 m 29
 150 375 l 29
 150 237 l 29
 850 237 l 29
 850 375 l 29
100 425 m 29
 900 425 l 29
 900 187 l 29
 150 187 l 29
 150 50 l 29
 900 50 l 29
 900 0 l 29
 100 0 l 29
 100 425 l 29
EndSplineSet
Validated: 1
EndChar

StartChar: f
Encoding: 102 102 75
Width: 1000
VWidth: 0
Flags: W
HStem: 0 21G<475 525> 375 50<100 475 525 900> 750 50<525 900>
VStem: 475 50<0 375 425 750>
LayerCount: 2
Fore
SplineSet
475 0 m 25
 475 375 l 25
 100 375 l 25
 100 425 l 25
 475 425 l 25
 475 800 l 25
 900 800 l 25
 900 750 l 25
 525 750 l 25
 525 425 l 25
 900 425 l 25
 900 375 l 29
 525 375 l 25
 525 0 l 25
 475 0 l 25
EndSplineSet
Validated: 1
EndChar

StartChar: s
Encoding: 115 115 76
Width: 1000
VWidth: 0
Flags: W
HStem: 0 50<100 850> 187 50<150 850> 375 50<150 900>
VStem: 100 50<237 375> 850 50<50 187>
LayerCount: 2
Fore
SplineSet
100 425 m 25
 900 425 l 25
 900 375 l 25
 150 375 l 25
 150 237 l 25
 900 237 l 25
 900 0 l 25
 100 0 l 25
 100 50 l 25
 850 50 l 25
 850 187 l 25
 100 187 l 29
 100 425 l 25
EndSplineSet
Validated: 1
EndChar

StartChar: at
Encoding: 64 64 77
Width: 1000
VWidth: 0
Flags: W
HStem: 0 50<150 900> 237 50<300 850> 513 50<300 850> 750 50<150 850>
VStem: 100 50<50 750> 250 50<287 513> 850 50<287 513 563 750>
LayerCount: 2
Fore
SplineSet
850 513 m 25
 300 513 l 25
 300 287 l 25
 850 287 l 25
 850 513 l 25
900 237 m 25
 250 237 l 25
 250 563 l 25
 850 563 l 25
 850 750 l 25
 150 750 l 25
 150 50 l 25
 900 50 l 25
 900 0 l 25
 100 0 l 25
 100 800 l 25
 900 800 l 25
 900 237 l 25
EndSplineSet
Validated: 1
EndChar

StartChar: v
Encoding: 118 118 78
Width: 1000
VWidth: 0
Flags: W
HStem: 0 21G<100 177.647> 405 20G<100 150 456.944 535>
VStem: 100 50<65 425>
LayerCount: 2
Fore
SplineSet
100 425 m 25
 150 425 l 1
 150 65 l 1
 475 425 l 25
 535 425 l 25
 160 0 l 1
 100 0 l 1
 100 425 l 25
EndSplineSet
Validated: 1
EndChar

StartChar: y
Encoding: 121 121 79
Width: 1000
VWidth: 0
Flags: W
HStem: -375 21G<100 183.375> 405 20G<100 183.611 816.389 900>
LayerCount: 2
Fore
SplineSet
100 425 m 5
 165 425 l 5
 500 65 l 5
 835 425 l 5
 900 425 l 5
 165 -375 l 5
 100 -375 l 5
 468 22 l 5
 100 425 l 5
EndSplineSet
Validated: 1
EndChar

StartChar: z
Encoding: 122 122 80
Width: 1000
VWidth: 0
Flags: W
HStem: 0 50<215 900> 375 50<100 785>
LayerCount: 2
Fore
SplineSet
100 425 m 25
 900 425 l 25
 900 375 l 25
 215 50 l 25
 900 50 l 25
 900 0 l 25
 100 0 l 25
 100 50 l 25
 785 375 l 29
 100 375 l 25
 100 425 l 25
EndSplineSet
Validated: 1
EndChar

StartChar: k
Encoding: 107 107 81
Width: 1000
VWidth: 0
Flags: W
HStem: -375 21G<816.361 900> 0 21G<100 150> 780 20G<100 150 471.867 555>
VStem: 100 50<0 360 425 800>
LayerCount: 2
Fore
SplineSet
100 800 m 25
 150 800 l 25
 150 425 l 25
 490 800 l 25
 555 800 l 25
 200 400 l 25
 900 -375 l 25
 835 -375 l 25
 150 360 l 25
 150 0 l 25
 100 0 l 25
 100 800 l 25
EndSplineSet
Validated: 1
EndChar

StartChar: w
Encoding: 119 119 82
Width: 1000
VWidth: 0
Flags: W
HStem: 0 21G<100 192.081 811.156 900> 405 20G<100 188.356 850 900>
VStem: 100 50<60 365> 850 50<60 425>
LayerCount: 2
Fore
SplineSet
459 204 m 1
 150 365 l 1
 150 60 l 1
 459 204 l 1
100 425 m 25
 150 425 l 1
 850 60 l 1
 850 425 l 25
 900 425 l 25
 900 0 l 25
 850 0 l 1
 514 173 l 5
 150 0 l 1
 100 0 l 1
 100 425 l 25
EndSplineSet
Validated: 1
EndChar

StartChar: x
Encoding: 120 120 83
Width: 1000
VWidth: 0
Flags: W
HStem: 0 21G<100 218.343 780.771 900> 405 20G<100 218.419 782.469 900>
LayerCount: 2
Fore
SplineSet
100 425 m 29
 183 425 l 29
 500 246 l 5
 818 425 l 29
 900 425 l 29
 531 212 l 5
 900 0 l 29
 817 0 l 29
 500 175 l 5
 182 0 l 29
 100 0 l 29
 466 212 l 5
 100 425 l 29
EndSplineSet
Validated: 1
EndChar

StartChar: comma
Encoding: 44 44 85
Width: 1000
VWidth: 0
Flags: HW
LayerCount: 2
Fore
SplineSet
600 85 m 21
 465 -50 l 13
 400 -50 l 21
 600 150 l 5
 600 85 l 21
EndSplineSet
EndChar

StartChar: quotesingle
Encoding: 39 39 86
Width: 1000
VWidth: 0
Flags: HW
LayerCount: 2
Fore
SplineSet
475 955 m 21
 475 770 l 5
 475 650 l 13
 525 650 l 21
 525 800 l 5
 525 1040 l 5
 475 955 l 21
EndSplineSet
EndChar

StartChar: grave
Encoding: 96 96 87
Width: 1000
VWidth: 0
Flags: HW
LayerCount: 2
Fore
SplineSet
400 735 m 21
 535 600 l 13
 600 600 l 21
 400 800 l 5
 400 735 l 21
EndSplineSet
EndChar

StartChar: semicolon
Encoding: 59 59 88
Width: 1000
VWidth: 0
Flags: HW
LayerCount: 2
Fore
SplineSet
315 -100 m 17
 475 150 l 9
 525 150 l 17
 315 -175 l 1
 315 -100 l 17
475 300 m 25
 475 450 l 25
 525 450 l 25
 525 300 l 25
 475 300 l 25
EndSplineSet
EndChar

StartChar: exclamdown
Encoding: 161 161 89
Width: 1000
VWidth: 0
Flags: HW
LayerCount: 2
Fore
SplineSet
475 650 m 25x30
 525 650 l 25
 525 500 l 25
 475 500 l 25
 475 650 l 25x30
475 350 m 25
 525 350 l 25
 525 -150 l 25
 475 -150 l 25xb0
 475 350 l 25
EndSplineSet
EndChar

StartChar: quotedbl
Encoding: 34 34 90
Width: 1000
VWidth: 0
Flags: HW
LayerCount: 2
Fore
SplineSet
375 955 m 17
 375 770 l 1
 375 650 l 9
 425 650 l 17
 425 800 l 1
 425 1040 l 1
 375 955 l 17
575 955 m 17
 575 770 l 1
 575 650 l 9
 625 650 l 17
 625 800 l 1
 625 1040 l 1
 575 955 l 17
EndSplineSet
EndChar

StartChar: parenright
Encoding: 41 41 91
Width: 1000
VWidth: 0
Flags: HW
LayerCount: 2
Fore
SplineSet
425 800 m 5xe0
 700 620 l 1
 700 180 l 1
 425 0 l 1
 425 50 l 1xe0
 650 205 l 1
 650 595 l 1xd0
 425 750 l 1
 425 800 l 5xe0
EndSplineSet
EndChar

StartChar: parenleft
Encoding: 40 40 92
Width: 1000
VWidth: 0
Flags: HW
LayerCount: 2
Fore
SplineSet
575 800 m 5xe0
 300 620 l 5
 300 180 l 5
 575 0 l 5
 575 50 l 5xe0
 350 205 l 5
 350 595 l 5xd0
 575 750 l 5
 575 800 l 5xe0
EndSplineSet
EndChar

StartChar: braceleft
Encoding: 123 123 93
Width: 1000
VWidth: 0
Flags: HW
LayerCount: 2
Fore
SplineSet
475 800 m 5xe0
 475 600 l 5
 275 380 l 5
 475 200 l 5
 475 0 l 5
 525 0 l 5xe0
 625 0 l 5
 625 50 l 5
 525 50 l 5
 525 215 l 5
 340 378 l 5
 525 585 l 5xd0
 525 750 l 5
 625 750.860351562 l 5
 625 800 l 5
 525 800 l 5
 475 800 l 5xe0
EndSplineSet
EndChar

StartChar: braceright
Encoding: 125 125 94
Width: 1000
VWidth: 0
Flags: HW
LayerCount: 2
Fore
SplineSet
525 800 m 1xe0
 525 600 l 1
 725 380 l 1
 525 200 l 1
 525 0 l 1
 475 0 l 1xe0
 375 0 l 1
 375 50 l 1
 475 50 l 1
 475 215 l 1
 660 378 l 1
 475 585 l 1xd0
 475 750 l 1
 375 750.860351562 l 1
 375 800 l 1
 475 800 l 1
 525 800 l 1xe0
EndSplineSet
EndChar

StartChar: Agrave
Encoding: 192 192 95
Width: 1000
VWidth: 0
Flags: HW
LayerCount: 2
Fore
SplineSet
400 1035 m 21
 535 900 l 13
 600 900 l 21
 400 1100 l 5
 400 1035 l 21
850 750 m 25x3c
 150 750 l 25
 150 425 l 25
 850 425 l 25
 850 750 l 25x3c
100 800 m 25
 900 800 l 25
 900 0 l 25
 850 0 l 25
 850 375 l 25
 150 375 l 25
 150 0 l 25
 100 0 l 25xbc
 100 800 l 25
EndSplineSet
EndChar

StartChar: Aacute
Encoding: 193 193 96
Width: 1000
VWidth: 0
Flags: HW
LayerCount: 2
Fore
SplineSet
400 965 m 21
 535 1100 l 13
 600 1100 l 21
 400 900 l 5
 400 965 l 21
850 750 m 25x3c
 150 750 l 25
 150 425 l 25
 850 425 l 25
 850 750 l 25x3c
100 800 m 25
 900 800 l 25
 900 0 l 25
 850 0 l 25
 850 375 l 25
 150 375 l 25
 150 0 l 25
 100 0 l 25xbc
 100 800 l 25
EndSplineSet
EndChar

StartChar: acute
Encoding: 180 180 97
Width: 1000
VWidth: 0
Flags: HW
LayerCount: 2
Fore
SplineSet
600 735 m 21
 465 600 l 13
 400 600 l 21
 600 800 l 5
 600 735 l 21
EndSplineSet
EndChar

StartChar: Acircumflex
Encoding: 194 194 98
Width: 1000
VWidth: 0
Flags: HW
LayerCount: 2
Fore
SplineSet
365 965 m 21
 500 1100 l 13
 645 965 l 5
 645 900 l 5
 502 1032 l 5
 365 900 l 5
 365 965 l 21
850 750 m 25x3c
 150 750 l 25
 150 425 l 25
 850 425 l 25
 850 750 l 25x3c
100 800 m 25
 900 800 l 25
 900 0 l 25
 850 0 l 25
 850 375 l 25
 150 375 l 25
 150 0 l 25
 100 0 l 25xbc
 100 800 l 25
EndSplineSet
EndChar

StartChar: Atilde
Encoding: 195 195 99
Width: 1000
VWidth: 0
Flags: HW
LayerCount: 2
Fore
SplineSet
419 1072 m 5
 565 900 l 5
 710 1035 l 5
 710 1100 l 5
 570 973 l 5
 425 1140 l 5
 290 1005 l 5
 290 940 l 5
 419 1072 l 5
850 750 m 25x3c
 150 750 l 25
 150 425 l 25
 850 425 l 25
 850 750 l 25x3c
100 800 m 25
 900 800 l 25
 900 0 l 25
 850 0 l 25
 850 375 l 25
 150 375 l 25
 150 0 l 25
 100 0 l 25xbc
 100 800 l 25
EndSplineSet
EndChar

StartChar: Adieresis
Encoding: 196 196 100
Width: 1000
VWidth: 0
Flags: HW
LayerCount: 2
Fore
SplineSet
365 900 m 29
 365 1050 l 29
 415 1050 l 29
 415 900 l 29
 365 900 l 29
595 900 m 29
 595 1050 l 29
 645 1050 l 29
 645 900 l 29
 595 900 l 29
850 750 m 25x3c
 150 750 l 25
 150 425 l 25
 850 425 l 25
 850 750 l 25x3c
100 800 m 25
 900 800 l 25
 900 0 l 25
 850 0 l 25
 850 375 l 25
 150 375 l 25
 150 0 l 25
 100 0 l 25xbc
 100 800 l 25
EndSplineSet
EndChar

StartChar: Aring
Encoding: 197 197 101
Width: 1000
VWidth: 0
Flags: HW
LayerCount: 2
Fore
SplineSet
595 1000 m 5
 415 1000 l 5
 415 950 l 5
 595 950 l 5
 595 1000 l 5
365 900 m 5
 365 1050 l 5
 645 1050 l 5
 645 900 l 29
 365 900 l 5
850 750 m 25x3c
 150 750 l 25
 150 425 l 25
 850 425 l 25
 850 750 l 25x3c
100 800 m 25
 900 800 l 25
 900 0 l 25
 850 0 l 25
 850 375 l 25
 150 375 l 25
 150 0 l 25
 100 0 l 25xbc
 100 800 l 25
EndSplineSet
EndChar

StartChar: AE
Encoding: 198 198 102
Width: 1000
VWidth: 0
Flags: HW
LayerCount: 2
Fore
SplineSet
475 750 m 25x3c
 150 750 l 25
 150 425 l 25
 475 425 l 25
 475 750 l 25x3c
100 800 m 25
 900 800 l 1
 900 750 l 1
 525 750 l 1
 525 425 l 1
 713 425 l 1
 713 375 l 1
 525 375 l 1
 525 50 l 1
 900 50 l 1
 900 0 l 1
 475 0 l 25
 475 375 l 25
 150 375 l 25
 150 0 l 25
 100 0 l 25xbc
 100 800 l 25
EndSplineSet
EndChar

StartChar: Ccedilla
Encoding: 199 199 103
Width: 1000
VWidth: 0
Flags: HW
LayerCount: 2
Fore
SplineSet
100 800 m 29
 900 800 l 29
 900 750 l 29
 150 750 l 29
 150 50 l 29
 900 50 l 29
 900 0 l 5
 591 1 l 5
 456 -134 l 5
 391 -134 l 5
 525 0 l 5
 100 0 l 5
 100 800 l 29
EndSplineSet
EndChar

StartChar: Egrave
Encoding: 200 200 104
Width: 1000
VWidth: 0
Flags: HW
LayerCount: 2
Fore
SplineSet
400 1035 m 17
 535 900 l 9
 600 900 l 17
 400 1100 l 1
 400 1035 l 17
100 800 m 29
 900 800 l 29
 900 750 l 29
 150 750 l 29
 150 425 l 29
 525 425 l 29
 525 375 l 29
 150 375 l 29
 150 50 l 29
 900 50 l 29
 900 0 l 29
 100 0 l 29
 100 800 l 29
EndSplineSet
EndChar

StartChar: Eacute
Encoding: 201 201 105
Width: 1000
VWidth: 0
Flags: HW
LayerCount: 2
Fore
SplineSet
400 965 m 17
 535 1100 l 9
 600 1100 l 17
 400 900 l 1
 400 965 l 17
100 800 m 29
 900 800 l 29
 900 750 l 29
 150 750 l 29
 150 425 l 29
 525 425 l 29
 525 375 l 29
 150 375 l 29
 150 50 l 29
 900 50 l 29
 900 0 l 29
 100 0 l 29
 100 800 l 29
EndSplineSet
EndChar

StartChar: Ecircumflex
Encoding: 202 202 106
Width: 1000
VWidth: 0
Flags: HW
LayerCount: 2
Fore
SplineSet
365 965 m 17
 500 1100 l 9
 645 965 l 1
 645 900 l 1
 502 1032 l 1
 365 900 l 1
 365 965 l 17
100 800 m 25
 900 800 l 25
 900 750 l 25
 150 750 l 25
 150 425 l 25
 525 425 l 25
 525 375 l 25
 150 375 l 25
 150 50 l 25
 900 50 l 25
 900 0 l 25
 100 0 l 25
 100 800 l 25
EndSplineSet
EndChar

StartChar: Edieresis
Encoding: 203 203 107
Width: 1000
VWidth: 0
Flags: HW
LayerCount: 2
Fore
SplineSet
365 900 m 25
 365 1050 l 25
 415 1050 l 25
 415 900 l 25
 365 900 l 25
595 900 m 25
 595 1050 l 25
 645 1050 l 25
 645 900 l 25
 595 900 l 25
100 800 m 25
 900 800 l 25
 900 750 l 25
 150 750 l 25
 150 425 l 25
 525 425 l 25
 525 375 l 25
 150 375 l 25
 150 50 l 25
 900 50 l 25
 900 0 l 25
 100 0 l 25
 100 800 l 25
EndSplineSet
EndChar

StartChar: Igrave
Encoding: 204 204 108
Width: 1000
VWidth: 0
Flags: HW
LayerCount: 2
Fore
SplineSet
400 1035 m 17
 535 900 l 9
 600 900 l 17
 400 1100 l 1
 400 1035 l 17
100 800 m 25
 900 800 l 25
 900 750 l 25
 525 750 l 25
 525 50 l 25
 900 50 l 25
 900 0 l 25
 100 0 l 25
 100 50 l 25
 475 50 l 25
 475 750 l 25
 100 750 l 25
 100 800 l 25
EndSplineSet
EndChar

StartChar: Iacute
Encoding: 205 205 109
Width: 1000
VWidth: 0
Flags: HW
LayerCount: 2
Fore
SplineSet
400 965 m 17
 535 1100 l 9
 600 1100 l 17
 400 900 l 1
 400 965 l 17
100 800 m 25
 900 800 l 25
 900 750 l 25
 525 750 l 25
 525 50 l 25
 900 50 l 25
 900 0 l 25
 100 0 l 25
 100 50 l 25
 475 50 l 25
 475 750 l 25
 100 750 l 25
 100 800 l 25
EndSplineSet
EndChar

StartChar: Icircumflex
Encoding: 206 206 110
Width: 1000
VWidth: 0
Flags: HW
LayerCount: 2
Fore
SplineSet
365 965 m 17
 500 1100 l 9
 645 965 l 1
 645 900 l 1
 502 1032 l 1
 365 900 l 1
 365 965 l 17
100 800 m 25
 900 800 l 25
 900 750 l 25
 525 750 l 25
 525 50 l 25
 900 50 l 25
 900 0 l 25
 100 0 l 25
 100 50 l 25
 475 50 l 25
 475 750 l 25
 100 750 l 25
 100 800 l 25
EndSplineSet
EndChar

StartChar: Idieresis
Encoding: 207 207 111
Width: 1000
VWidth: 0
Flags: HW
LayerCount: 2
Fore
SplineSet
365 900 m 25
 365 1050 l 25
 415 1050 l 25
 415 900 l 25
 365 900 l 25
595 900 m 25
 595 1050 l 25
 645 1050 l 25
 645 900 l 25
 595 900 l 25
100 800 m 25
 900 800 l 25
 900 750 l 25
 525 750 l 25
 525 50 l 25
 900 50 l 25
 900 0 l 25
 100 0 l 25
 100 50 l 25
 475 50 l 25
 475 750 l 25
 100 750 l 25
 100 800 l 25
EndSplineSet
EndChar

StartChar: Eth
Encoding: 208 208 112
Width: 1000
VWidth: 0
Flags: HW
LayerCount: 2
Fore
SplineSet
510 750 m 25
 150 750 l 1
 150 425 l 1
 525 425 l 1
 525 375 l 1
 150 375 l 1
 150 50 l 1
 850 50 l 25
 850 410 l 25
 510 750 l 25
100 800 m 1
 525 800 l 25
 900 425 l 25
 900 0 l 25
 100 0 l 1
 100 375 l 1
 0 375 l 1
 0 425 l 1
 100 425 l 1
 100 800 l 1
EndSplineSet
EndChar

StartChar: Ntilde
Encoding: 209 209 113
Width: 1000
VWidth: 0
Flags: HW
LayerCount: 2
Fore
SplineSet
419 1072 m 5
 565 900 l 5
 710 1035 l 5
 710 1100 l 5
 570 973 l 5
 425 1140 l 5
 290 1005 l 5
 290 940 l 5
 419 1072 l 5
150 800 m 25xb8
 850 75 l 25
 850 800 l 25
 900 800 l 25
 900 0 l 25
 850 0 l 25
 150 725 l 25
 150 0 l 25
 100 0 l 25
 100 800 l 25
 150 800 l 25xb8
EndSplineSet
EndChar

StartChar: Ograve
Encoding: 210 210 114
Width: 1000
VWidth: 0
Flags: HW
LayerCount: 2
Fore
SplineSet
400 1035 m 21
 535 900 l 13
 600 900 l 21
 400 1100 l 5
 400 1035 l 21
850 750 m 25
 150 750 l 25
 150 50 l 25
 850 50 l 25
 850 750 l 25
100 800 m 25
 900 800 l 25
 900 0 l 25
 100 0 l 25
 100 800 l 25
EndSplineSet
EndChar

StartChar: Oacute
Encoding: 211 211 115
Width: 1000
VWidth: 0
Flags: HW
LayerCount: 2
Fore
SplineSet
400 965 m 17
 535 1100 l 9
 600 1100 l 17
 400 900 l 1
 400 965 l 17
850 750 m 25
 150 750 l 25
 150 50 l 25
 850 50 l 25
 850 750 l 25
100 800 m 25
 900 800 l 25
 900 0 l 25
 100 0 l 25
 100 800 l 25
EndSplineSet
EndChar

StartChar: Ocircumflex
Encoding: 212 212 116
Width: 1000
VWidth: 0
Flags: HW
LayerCount: 2
Fore
SplineSet
365 965 m 17
 500 1100 l 9
 645 965 l 1
 645 900 l 1
 502 1032 l 1
 365 900 l 1
 365 965 l 17
850 750 m 25
 150 750 l 25
 150 50 l 25
 850 50 l 25
 850 750 l 25
100 800 m 25
 900 800 l 25
 900 0 l 25
 100 0 l 25
 100 800 l 25
EndSplineSet
EndChar

StartChar: Otilde
Encoding: 213 213 117
Width: 1000
VWidth: 0
Flags: HW
LayerCount: 2
Fore
SplineSet
419 1072 m 1
 565 900 l 1
 710 1035 l 1
 710 1100 l 1
 570 973 l 1
 425 1140 l 1
 290 1005 l 1
 290 940 l 1
 419 1072 l 1
850 750 m 25
 150 750 l 25
 150 50 l 25
 850 50 l 25
 850 750 l 25
100 800 m 25
 900 800 l 25
 900 0 l 25
 100 0 l 25
 100 800 l 25
EndSplineSet
EndChar

StartChar: Odieresis
Encoding: 214 214 118
Width: 1000
VWidth: 0
Flags: HW
LayerCount: 2
Fore
SplineSet
365 900 m 25
 365 1050 l 25
 415 1050 l 25
 415 900 l 25
 365 900 l 25
595 900 m 25
 595 1050 l 25
 645 1050 l 25
 645 900 l 25
 595 900 l 25
850 750 m 25
 150 750 l 25
 150 50 l 25
 850 50 l 25
 850 750 l 25
100 800 m 25
 900 800 l 25
 900 0 l 25
 100 0 l 25
 100 800 l 25
EndSplineSet
EndChar

StartChar: multiply
Encoding: 215 215 119
Width: 1000
VWidth: 0
Flags: HW
LayerCount: 2
Fore
SplineSet
100 800 m 25xa0
 165 800 l 25
 500 440 l 25
 835 800 l 25
 900 800 l 25
 540 400 l 25
 900 0 l 25
 835 0 l 25
 500 360 l 25
 165 0 l 25
 100 0 l 25
 460 400 l 25
 100 800 l 25xa0
EndSplineSet
EndChar

StartChar: Ugrave
Encoding: 217 217 120
Width: 1000
VWidth: 0
Flags: HW
LayerCount: 2
Fore
SplineSet
400 1035 m 21
 535 900 l 13
 600 900 l 21
 400 1100 l 5
 400 1035 l 21
100 800 m 25
 150 800 l 25
 150 405 l 25
 505 50 l 25
 850 50 l 25
 850 800 l 25
 900 800 l 25
 900 0 l 25
 475 0 l 25
 100 375 l 25
 100 800 l 25
EndSplineSet
EndChar

StartChar: Uacute
Encoding: 218 218 121
Width: 1000
VWidth: 0
Flags: HW
LayerCount: 2
Fore
SplineSet
400 965 m 17
 535 1100 l 9
 600 1100 l 17
 400 900 l 1
 400 965 l 17
100 800 m 25
 150 800 l 25
 150 405 l 25
 505 50 l 25
 850 50 l 25
 850 800 l 25
 900 800 l 25
 900 0 l 25
 475 0 l 25
 100 375 l 25
 100 800 l 25
EndSplineSet
EndChar

StartChar: Ucircumflex
Encoding: 219 219 122
Width: 1000
VWidth: 0
Flags: HW
LayerCount: 2
Fore
SplineSet
365 965 m 17
 500 1100 l 9
 645 965 l 1
 645 900 l 1
 502 1032 l 1
 365 900 l 1
 365 965 l 17
100 800 m 25
 150 800 l 25
 150 405 l 25
 505 50 l 25
 850 50 l 25
 850 800 l 25
 900 800 l 25
 900 0 l 25
 475 0 l 25
 100 375 l 25
 100 800 l 25
EndSplineSet
EndChar

StartChar: Udieresis
Encoding: 220 220 123
Width: 1000
VWidth: 0
Flags: HW
LayerCount: 2
Fore
SplineSet
365 900 m 25
 365 1050 l 25
 415 1050 l 25
 415 900 l 25
 365 900 l 25
595 900 m 25
 595 1050 l 25
 645 1050 l 25
 645 900 l 25
 595 900 l 25
100 800 m 25
 150 800 l 25
 150 405 l 25
 505 50 l 25
 850 50 l 25
 850 800 l 25
 900 800 l 25
 900 0 l 25
 475 0 l 25
 100 375 l 25
 100 800 l 25
EndSplineSet
EndChar

StartChar: Yacute
Encoding: 221 221 124
Width: 1000
VWidth: 0
Flags: HW
LayerCount: 2
Fore
SplineSet
400 965 m 17
 535 1100 l 9
 600 1100 l 17
 400 900 l 1
 400 965 l 17
100 800 m 25xb0
 165 800 l 25
 500 455 l 25
 835 800 l 25
 900 800 l 25
 525 400 l 25
 525 0 l 25
 475 0 l 25
 475 400 l 25
 100 800 l 25xb0
EndSplineSet
EndChar

StartChar: agrave
Encoding: 224 224 125
Width: 1000
VWidth: 0
Flags: HW
LayerCount: 2
Fore
SplineSet
400 660 m 21
 535 525 l 13
 600 525 l 21
 400 725 l 5
 400 660 l 21
850 187 m 25
 150 187 l 25
 150 50 l 25
 850 50 l 25
 850 187 l 25
100 425 m 25
 900 425 l 25
 900 0 l 25
 100 0 l 25
 100 237 l 25
 850 237 l 25
 850 375 l 25
 100 375 l 25
 100 425 l 25
EndSplineSet
EndChar

StartChar: aacute
Encoding: 225 225 126
Width: 1000
VWidth: 0
Flags: HW
LayerCount: 2
Fore
SplineSet
400 590 m 21
 535 725 l 13
 600 725 l 21
 400 525 l 5
 400 590 l 21
850 187 m 25
 150 187 l 25
 150 50 l 25
 850 50 l 25
 850 187 l 25
100 425 m 25
 900 425 l 25
 900 0 l 25
 100 0 l 25
 100 237 l 25
 850 237 l 25
 850 375 l 25
 100 375 l 25
 100 425 l 25
EndSplineSet
EndChar

StartChar: acircumflex
Encoding: 226 226 127
Width: 1000
VWidth: 0
Flags: HW
LayerCount: 2
Fore
SplineSet
365 590 m 21
 500 725 l 13
 645 590 l 5
 645 525 l 5
 502 657 l 5
 365 525 l 5
 365 590 l 21
850 187 m 25
 150 187 l 25
 150 50 l 25
 850 50 l 25
 850 187 l 25
100 425 m 25
 900 425 l 25
 900 0 l 25
 100 0 l 25
 100 237 l 25
 850 237 l 25
 850 375 l 25
 100 375 l 25
 100 425 l 25
EndSplineSet
EndChar

StartChar: atilde
Encoding: 227 227 128
Width: 1000
VWidth: 0
Flags: HW
LayerCount: 2
Fore
SplineSet
419 697 m 5
 565 525 l 5
 710 660 l 5
 710 725 l 5
 570 598 l 5
 425 765 l 5
 290 630 l 5
 290 565 l 5
 419 697 l 5
850 187 m 25
 150 187 l 25
 150 50 l 25
 850 50 l 25
 850 187 l 25
100 425 m 25
 900 425 l 25
 900 0 l 25
 100 0 l 25
 100 237 l 25
 850 237 l 25
 850 375 l 25
 100 375 l 25
 100 425 l 25
EndSplineSet
EndChar

StartChar: adieresis
Encoding: 228 228 129
Width: 1000
VWidth: 0
Flags: HW
LayerCount: 2
Fore
SplineSet
365 525 m 29
 365 675 l 29
 415 675 l 29
 415 525 l 29
 365 525 l 29
595 525 m 29
 595 675 l 29
 645 675 l 29
 645 525 l 29
 595 525 l 29
850 187 m 25
 150 187 l 25
 150 50 l 25
 850 50 l 25
 850 187 l 25
100 425 m 25
 900 425 l 25
 900 0 l 25
 100 0 l 25
 100 237 l 25
 850 237 l 25
 850 375 l 25
 100 375 l 25
 100 425 l 25
EndSplineSet
EndChar

StartChar: aring
Encoding: 229 229 130
Width: 1000
VWidth: 0
Flags: HW
LayerCount: 2
Fore
SplineSet
595 625 m 5
 415 625 l 5
 415 575 l 5
 595 575 l 5
 595 625 l 5
365 525 m 5
 365 675 l 5
 645 675 l 5
 645 525 l 29
 365 525 l 5
850 187 m 25
 150 187 l 25
 150 50 l 25
 850 50 l 25
 850 187 l 25
100 425 m 25
 900 425 l 25
 900 0 l 25
 100 0 l 25
 100 237 l 25
 850 237 l 25
 850 375 l 25
 100 375 l 25
 100 425 l 25
EndSplineSet
EndChar

StartChar: ae
Encoding: 230 230 131
Width: 1000
VWidth: 0
Flags: HW
LayerCount: 2
Fore
SplineSet
850 375 m 5
 525 375 l 1
 525 237 l 1
 850 237 l 1
 850 375 l 5
475 187 m 25
 150 187 l 25
 150 50 l 25
 475 50 l 25
 475 187 l 25
100 425 m 25
 900 425 l 1
 900 187 l 1
 525 187 l 1
 525 50 l 1
 900 50 l 1
 900 0 l 1
 100 0 l 1
 100 237 l 25
 475 237 l 25
 475 375 l 25
 100 375 l 25
 100 425 l 25
EndSplineSet
EndChar

StartChar: ccedilla
Encoding: 231 231 132
Width: 1000
VWidth: 0
Flags: HW
LayerCount: 2
Fore
SplineSet
100 425 m 29
 900 425 l 29
 900 375 l 29
 150 375 l 29
 150 50 l 25
 900 50 l 25
 900 0 l 1
 591 1 l 1
 456 -134 l 1
 391 -134 l 1
 525 0 l 1
 100 0 l 1
 100 425 l 29
EndSplineSet
EndChar

StartChar: egrave
Encoding: 232 232 133
Width: 1000
VWidth: 0
Flags: HW
LayerCount: 2
Fore
SplineSet
400 660 m 17
 535 525 l 9
 600 525 l 17
 400 725 l 1
 400 660 l 17
850 375 m 25
 150 375 l 25
 150 237 l 25
 850 237 l 25
 850 375 l 25
100 425 m 25
 900 425 l 25
 900 187 l 25
 150 187 l 25
 150 50 l 25
 900 50 l 25
 900 0 l 25
 100 0 l 25
 100 425 l 25
EndSplineSet
EndChar

StartChar: eacute
Encoding: 233 233 134
Width: 1000
VWidth: 0
Flags: HW
LayerCount: 2
Fore
SplineSet
400 590 m 17
 535 725 l 9
 600 725 l 17
 400 525 l 1
 400 590 l 17
850 375 m 25
 150 375 l 25
 150 237 l 25
 850 237 l 25
 850 375 l 25
100 425 m 25
 900 425 l 25
 900 187 l 25
 150 187 l 25
 150 50 l 25
 900 50 l 25
 900 0 l 25
 100 0 l 25
 100 425 l 25
EndSplineSet
EndChar

StartChar: ecircumflex
Encoding: 234 234 135
Width: 1000
VWidth: 0
Flags: HW
LayerCount: 2
Fore
SplineSet
365 590 m 17
 500 725 l 9
 645 590 l 1
 645 525 l 1
 502 657 l 1
 365 525 l 1
 365 590 l 17
850 375 m 25
 150 375 l 25
 150 237 l 25
 850 237 l 25
 850 375 l 25
100 425 m 25
 900 425 l 25
 900 187 l 25
 150 187 l 25
 150 50 l 25
 900 50 l 25
 900 0 l 25
 100 0 l 25
 100 425 l 25
EndSplineSet
EndChar

StartChar: edieresis
Encoding: 235 235 136
Width: 1000
VWidth: 0
Flags: HW
LayerCount: 2
Fore
SplineSet
365 525 m 25
 365 675 l 25
 415 675 l 25
 415 525 l 25
 365 525 l 25
595 525 m 25
 595 675 l 25
 645 675 l 25
 645 525 l 25
 595 525 l 25
850 375 m 25
 150 375 l 25
 150 237 l 25
 850 237 l 25
 850 375 l 25
100 425 m 25
 900 425 l 25
 900 187 l 25
 150 187 l 25
 150 50 l 25
 900 50 l 25
 900 0 l 25
 100 0 l 25
 100 425 l 25
EndSplineSet
EndChar

StartChar: igrave
Encoding: 236 236 137
Width: 1000
VWidth: 0
Flags: HW
LayerCount: 2
Fore
SplineSet
325 785 m 17
 460 650 l 9
 525 650 l 17
 325 850 l 1
 325 785 l 17
475 500 m 25
 525 500 l 25
 525 0 l 25
 475 0 l 25xb0
 475 500 l 25
EndSplineSet
EndChar

StartChar: iacute
Encoding: 237 237 138
Width: 1000
VWidth: 0
Flags: HW
LayerCount: 2
Fore
SplineSet
475 715 m 17
 610 850 l 9
 675 850 l 17
 475 650 l 1
 475 715 l 17
475 500 m 25
 525 500 l 25
 525 0 l 25
 475 0 l 25xb0
 475 500 l 25
EndSplineSet
EndChar

StartChar: icircumflex
Encoding: 238 238 139
Width: 1000
VWidth: 0
Flags: HW
LayerCount: 2
Fore
SplineSet
365 715 m 17
 500 850 l 9
 645 715 l 1
 645 650 l 1
 502 782 l 1
 365 650 l 1
 365 715 l 17
475 500 m 25
 525 500 l 25
 525 0 l 25
 475 0 l 25xb0
 475 500 l 25
EndSplineSet
EndChar

StartChar: idieresis
Encoding: 239 239 140
Width: 1000
VWidth: 0
Flags: HW
LayerCount: 2
Fore
SplineSet
365 650 m 25
 365 800 l 25
 415 800 l 25
 415 650 l 25
 365 650 l 25
595 650 m 25
 595 800 l 25
 645 800 l 25
 645 650 l 25
 595 650 l 25
475 500 m 25
 525 500 l 25
 525 0 l 25
 475 0 l 25xb0
 475 500 l 25
EndSplineSet
EndChar

StartChar: eth
Encoding: 240 240 141
Width: 1000
VWidth: 0
Flags: HW
LayerCount: 2
Fore
SplineSet
850 375 m 25
 150 375 l 25
 150 50 l 25
 850 50 l 25
 850 375 l 25
100 425 m 25
 850 425 l 1
 850 587 l 1
 475 587 l 1
 475 637 l 1
 850 637 l 1
 850 800 l 1
 900 800 l 1
 900 637 l 1
 1000 637 l 1
 1000 587 l 1
 900 587 l 1
 900 0 l 1
 100 0 l 25
 100 425 l 25
EndSplineSet
EndChar

StartChar: ntilde
Encoding: 241 241 142
Width: 1000
VWidth: 0
Flags: HW
LayerCount: 2
Fore
SplineSet
419 697 m 1
 565 525 l 1
 710 660 l 1
 710 725 l 1
 570 598 l 1
 425 765 l 1
 290 630 l 1
 290 565 l 1
 419 697 l 1
100 0 m 25
 100 425 l 25
 900 425 l 25
 900 0 l 25
 850 0 l 25
 850 375 l 25
 150 375 l 25
 150 0 l 25
 100 0 l 25
EndSplineSet
EndChar

StartChar: ograve
Encoding: 242 242 143
Width: 1000
VWidth: 0
Flags: HW
LayerCount: 2
Fore
SplineSet
400 660 m 17
 535 525 l 9
 600 525 l 17
 400 725 l 1
 400 660 l 17
850 375 m 25
 150 375 l 25
 150 50 l 25
 850 50 l 25
 850 375 l 25
100 0 m 25
 100 425 l 25
 900 425 l 25
 900 0 l 25
 100 0 l 25
EndSplineSet
EndChar

StartChar: oacute
Encoding: 243 243 144
Width: 1000
VWidth: 0
Flags: HW
LayerCount: 2
Fore
SplineSet
400 590 m 21
 535 725 l 13
 600 725 l 21
 400 525 l 5
 400 590 l 21
850 375 m 25
 150 375 l 25
 150 50 l 25
 850 50 l 25
 850 375 l 25
100 0 m 25
 100 425 l 25
 900 425 l 25
 900 0 l 25
 100 0 l 25
EndSplineSet
EndChar

StartChar: ocircumflex
Encoding: 244 244 145
Width: 1000
VWidth: 0
Flags: HW
LayerCount: 2
Fore
SplineSet
365 590 m 17
 500 725 l 9
 645 590 l 1
 645 525 l 1
 502 657 l 1
 365 525 l 1
 365 590 l 17
850 375 m 25
 150 375 l 25
 150 50 l 25
 850 50 l 25
 850 375 l 25
100 0 m 25
 100 425 l 25
 900 425 l 25
 900 0 l 25
 100 0 l 25
EndSplineSet
EndChar

StartChar: otilde
Encoding: 245 245 146
Width: 1000
VWidth: 0
Flags: HW
LayerCount: 2
Fore
SplineSet
419 697 m 1
 565 525 l 1
 710 660 l 1
 710 725 l 1
 570 598 l 1
 425 765 l 1
 290 630 l 1
 290 565 l 1
 419 697 l 1
850 375 m 25
 150 375 l 25
 150 50 l 25
 850 50 l 25
 850 375 l 25
100 0 m 25
 100 425 l 25
 900 425 l 25
 900 0 l 25
 100 0 l 25
EndSplineSet
EndChar

StartChar: odieresis
Encoding: 246 246 147
Width: 1000
VWidth: 0
Flags: HW
LayerCount: 2
Fore
SplineSet
365 525 m 25
 365 675 l 25
 415 675 l 25
 415 525 l 25
 365 525 l 25
595 525 m 25
 595 675 l 25
 645 675 l 25
 645 525 l 25
 595 525 l 25
850 375 m 25
 150 375 l 25
 150 50 l 25
 850 50 l 25
 850 375 l 25
100 0 m 25
 100 425 l 25
 900 425 l 25
 900 0 l 25
 100 0 l 25
EndSplineSet
EndChar

StartChar: divide
Encoding: 247 247 148
Width: 1000
VWidth: 0
Flags: HW
HStem: 375 50<100 900>
LayerCount: 2
Fore
SplineSet
475 525 m 29
 475 675 l 29
 525 675 l 29
 525 525 l 29
 475 525 l 29
475 125 m 25
 475 275 l 25
 525 275 l 25
 525 125 l 25
 475 125 l 25
100 425 m 25
 900 425 l 25
 900 375 l 25
 100 375 l 25
 100 425 l 25
EndSplineSet
EndChar

StartChar: ugrave
Encoding: 249 249 149
Width: 1000
VWidth: 0
Flags: HW
LayerCount: 2
Fore
SplineSet
400 660 m 21
 535 525 l 13
 600 525 l 21
 400 725 l 5
 400 660 l 21
100 425 m 25
 150 425 l 25
 150 50 l 25
 850 50 l 25
 850 425 l 25
 900 425 l 25
 900 0 l 25
 100 0 l 25
 100 425 l 25
EndSplineSet
EndChar

StartChar: uacute
Encoding: 250 250 150
Width: 1000
VWidth: 0
Flags: HW
LayerCount: 2
Fore
SplineSet
400 590 m 17
 535 725 l 9
 600 725 l 17
 400 525 l 1
 400 590 l 17
100 425 m 25
 150 425 l 25
 150 50 l 25
 850 50 l 25
 850 425 l 25
 900 425 l 25
 900 0 l 25
 100 0 l 25
 100 425 l 25
EndSplineSet
EndChar

StartChar: ucircumflex
Encoding: 251 251 151
Width: 1000
VWidth: 0
Flags: HW
LayerCount: 2
Fore
SplineSet
365 590 m 17
 500 725 l 9
 645 590 l 1
 645 525 l 1
 502 657 l 1
 365 525 l 1
 365 590 l 17
100 425 m 25
 150 425 l 25
 150 50 l 25
 850 50 l 25
 850 425 l 25
 900 425 l 25
 900 0 l 25
 100 0 l 25
 100 425 l 25
EndSplineSet
EndChar

StartChar: udieresis
Encoding: 252 252 152
Width: 1000
VWidth: 0
Flags: HW
LayerCount: 2
Fore
SplineSet
365 525 m 25
 365 675 l 25
 415 675 l 25
 415 525 l 25
 365 525 l 25
595 525 m 25
 595 675 l 25
 645 675 l 25
 645 525 l 25
 595 525 l 25
100 425 m 25
 150 425 l 25
 150 50 l 25
 850 50 l 25
 850 425 l 25
 900 425 l 25
 900 0 l 25
 100 0 l 25
 100 425 l 25
EndSplineSet
EndChar

StartChar: yacute
Encoding: 253 253 153
Width: 1000
VWidth: 0
Flags: HW
LayerCount: 2
Fore
SplineSet
400 590 m 17
 535 725 l 9
 600 725 l 17
 400 525 l 1
 400 590 l 17
100 425 m 5
 165 425 l 5
 500 65 l 5
 835 425 l 5
 900 425 l 5
 165 -375 l 5
 100 -375 l 5
 468 22 l 5
 100 425 l 5
EndSplineSet
EndChar

StartChar: ydieresis
Encoding: 255 255 154
Width: 1000
VWidth: 0
Flags: HW
LayerCount: 2
Fore
SplineSet
365 525 m 25
 365 675 l 25
 415 675 l 25
 415 525 l 25
 365 525 l 25
595 525 m 25
 595 675 l 25
 645 675 l 25
 645 525 l 25
 595 525 l 25
100 425 m 1
 165 425 l 1
 500 65 l 1
 835 425 l 1
 900 425 l 1
 165 -375 l 1
 100 -375 l 1
 468 22 l 1
 100 425 l 1
EndSplineSet
EndChar

StartChar: Oslash
Encoding: 216 216 155
Width: 1000
VWidth: 0
Flags: HW
LayerCount: 2
Fore
SplineSet
850 710 m 25
 190 50 l 25
 850 50 l 25
 850 710 l 25
810 750 m 25
 150 750 l 25
 150 90 l 25
 810 750 l 25
100 800 m 1
 860 800 l 1
 960 900 l 1
 1000 860 l 1
 900 760 l 1
 900 0 l 1
 140 0 l 1
 40 -100 l 1
 0 -60 l 1
 100 40 l 1
 100 800 l 1
EndSplineSet
EndChar

StartChar: oslash
Encoding: 248 248 156
Width: 1000
VWidth: 0
Flags: HW
LayerCount: 2
Fore
SplineSet
190 50 m 1
 850 50 l 25
 850 335 l 1
 190 50 l 1
810 375 m 1
 150 375 l 25
 150 90 l 1
 810 375 l 1
0 30 m 1
 100 70 l 1
 100 425 l 1
 900 425 l 1
 900 410 l 1
 1000 455 l 1
 1000 400 l 5
 900 355 l 1
 900 0 l 1
 100 0 l 1
 100 15 l 1
 0 -25 l 1
 0 30 l 1
EndSplineSet
EndChar

StartChar: questiondown
Encoding: 191 191 157
Width: 1000
VWidth: 0
Flags: HW
LayerCount: 2
Fore
SplineSet
980 285 m 5x3c
 605 -90 l 5
 180 -90 l 5
 180 335 l 5
 555 335 l 5
 555 475 l 5
 605 475 l 5
 606 285 l 5
 230 285 l 5
 230 -40 l 5
 590 -40 l 5
 915 285 l 5
 980 285 l 5x3c
  Spiro
    980 285 v
    605 -90 v
    180 -90 v
    180 335 v
    555 335 v
    555 475 v
    605 475 v
    606 285 v
    230 285 v
    230 -40 v
    590 -40 v
    915 285 v
    0 0 z
  EndSpiro
605 710 m 5xbc
 605 560 l 5
 555 560 l 5
 555 710 l 5
 605 710 l 5xbc
  Spiro
    605 710 v
    605 560 v
    555 560 v
    555 710 v
    0 0 z
  EndSpiro
EndSplineSet
EndChar

StartChar: mu
Encoding: 181 181 158
Width: 1000
VWidth: 0
Flags: HW
LayerCount: 2
Fore
SplineSet
100 425 m 25
 150 425 l 25
 150 50 l 25
 850 50 l 25
 850 425 l 25
 900 425 l 25
 900 0 l 1
 150 0 l 1
 150 -150 l 1
 100 -100 l 1
 100 425 l 25
EndSplineSet
EndChar

StartChar: paragraph
Encoding: 182 182 159
Width: 1000
VWidth: 0
Flags: HW
LayerCount: 2
Fore
SplineSet
525 750 m 25x3c
 850 750 l 25
 850 425 l 25
 525 425 l 25
 525 750 l 25x3c
900 800 m 25
 100 800 l 25
 100 375 l 1
 475 375 l 1
 475 0 l 1
 525 0 l 1
 525 375 l 1
 850 375 l 1
 850 0 l 25
 900 0 l 25xbc
 900 800 l 25
EndSplineSet
EndChar

StartChar: cedilla
Encoding: 184 184 160
Width: 1000
VWidth: 0
Flags: HW
LayerCount: 2
Fore
SplineSet
600 0 m 17
 465 -135 l 9
 400 -135 l 17
 600 65 l 1
 600 0 l 17
EndSplineSet
EndChar

StartChar: periodcentered
Encoding: 183 183 161
Width: 1000
VWidth: 0
Flags: HW
LayerCount: 2
Fore
SplineSet
475 325 m 29
 475 475 l 29
 525 475 l 29
 525 325 l 29
 475 325 l 29
EndSplineSet
EndChar

StartChar: ordmasculine
Encoding: 186 186 162
Width: 1000
VWidth: 0
Flags: HW
LayerCount: 2
Fore
SplineSet
595 425 m 5
 415 425 l 5
 415 375 l 5
 595 375 l 5
 595 425 l 5
365 325 m 5
 365 475 l 5
 645 475 l 5
 645 325 l 29
 365 325 l 5
EndSplineSet
EndChar

StartChar: plusminus
Encoding: 177 177 163
Width: 1000
VWidth: 0
Flags: HW
LayerCount: 2
Fore
SplineSet
100 50 m 1
 900 49 l 25
 900 0 l 1
 100 0 l 25
 100 50 l 1
475 800 m 25xb8
 525 800 l 25
 525 500 l 25
 900 500 l 25
 900 450 l 25
 525 450 l 25
 525 150 l 25
 475 150 l 25
 475 450 l 25
 100 450 l 25
 100 500 l 25
 475 500 l 25
 475 800 l 25xb8
EndSplineSet
EndChar

StartChar: uni00AD
Encoding: 173 173 164
Width: 1000
VWidth: 0
Flags: HW
LayerCount: 2
Fore
SplineSet
100 425 m 29
 900 425 l 29
 900 375 l 29
 100 375 l 29
 100 425 l 29
EndSplineSet
EndChar

StartChar: logicalnot
Encoding: 172 172 165
Width: 1000
VWidth: 0
Flags: HW
LayerCount: 2
Fore
SplineSet
100 425 m 25
 900 425 l 25
 900 225 l 1
 850 225 l 1
 850 375 l 1
 100 375 l 1
 100 425 l 25
EndSplineSet
EndChar

StartChar: macron
Encoding: 175 175 166
Width: 1000
VWidth: 0
Flags: HW
LayerCount: 2
Fore
SplineSet
100 800 m 29
 900 800 l 29
 900 750 l 29
 100 750 l 29
 100 800 l 29
EndSplineSet
EndChar

StartChar: cent
Encoding: 162 162 167
Width: 1000
VWidth: 0
Flags: HW
LayerCount: 2
Fore
SplineSet
100 425 m 17
 475 425 l 1
 475 525 l 1
 525 525 l 1
 525 425 l 5
 900 425 l 1
 900 375 l 25
 150 375 l 25
 150 50 l 25
 900 50 l 25
 900 0 l 1
 525 0 l 1
 525 -100 l 1
 475 -100 l 1
 475 0 l 1
 100 0 l 9
 100 425 l 17
EndSplineSet
EndChar

StartChar: currency
Encoding: 164 164 168
Width: 1000
VWidth: 0
Flags: HWO
LayerCount: 2
Fore
SplineSet
700 600 m 25
 300 600 l 25
 300 200 l 25
 700 200 l 25
 700 600 l 25
200 665 m 5
 235 700 l 5
 285 650 l 1
 715 650 l 1
 765 700 l 1
 800 665 l 1
 750 615 l 1
 750 185 l 1
 800 135 l 1
 765 100 l 1
 715 150 l 1
 285 150 l 1
 235 100 l 1
 200 135 l 1
 250 185 l 1
 250 615 l 1
 200 665 l 5
EndSplineSet
EndChar

StartChar: brokenbar
Encoding: 166 166 169
Width: 1000
VWidth: 0
Flags: HW
LayerCount: 2
Fore
SplineSet
475 800 m 25x30
 525 800 l 25
 525 475 l 29
 475 475 l 29
 475 800 l 25x30
475 375 m 25
 525 375 l 25
 525 0 l 25
 475 0 l 25xb0
 475 375 l 25
EndSplineSet
EndChar

StartChar: dieresis
Encoding: 168 168 170
Width: 1000
VWidth: 0
Flags: HW
LayerCount: 2
Fore
SplineSet
365 900 m 25
 365 1050 l 25
 415 1050 l 25
 415 900 l 25
 365 900 l 25
595 900 m 25
 595 1050 l 25
 645 1050 l 25
 645 900 l 25
 595 900 l 25
EndSplineSet
EndChar

StartChar: sterling
Encoding: 163 163 171
Width: 1000
VWidth: 0
Flags: HW
LayerCount: 2
Fore
SplineSet
100 800 m 1
 525 800 l 25
 525 650 l 1
 475 650 l 1
 475 750 l 1
 150 750 l 1
 150 425 l 25
 525 425 l 25
 525 375 l 25
 210 50 l 1
 850 50 l 1
 850 150 l 1
 900 150 l 1
 900 0 l 25
 100 0 l 1
 455 375 l 1
 0 375 l 1
 0 425 l 1
 100 425 l 1
 100 800 l 1
EndSplineSet
EndChar

StartChar: yen
Encoding: 165 165 172
Width: 1000
VWidth: 0
Flags: HW
LayerCount: 2
Fore
SplineSet
100 800 m 25xb0
 165 800 l 25
 500 455 l 25
 835 800 l 25
 900 800 l 25
 525 400 l 1
 525 237 l 1
 900 237 l 1
 900 187 l 1
 525 187 l 1
 525 50 l 1
 900 50 l 1
 900 0 l 1
 100 0 l 5
 100 50 l 5
 475 50 l 1
 475 187 l 1
 100 187 l 5
 100 237 l 5
 475 237 l 1
 475 400 l 1
 100 800 l 25xb0
EndSplineSet
EndChar

StartChar: copyright
Encoding: 169 169 173
Width: 1000
VWidth: 0
Flags: HW
LayerCount: 2
Fore
SplineSet
250 612 m 1
 750 612 l 25
 750 562 l 25
 300 562 l 25
 300 237 l 25
 750 237 l 1
 750 187 l 1
 250 187 l 1
 250 612 l 1
850 750 m 25
 150 750 l 25
 150 50 l 25
 850 50 l 25
 850 750 l 25
100 800 m 25
 900 800 l 25
 900 0 l 25
 100 0 l 25
 100 800 l 25
EndSplineSet
EndChar

StartChar: registered
Encoding: 174 174 174
Width: 1000
VWidth: 0
Flags: HW
LayerCount: 2
Fore
SplineSet
700 597 m 25x3c
 300 597 l 1
 300 425 l 25
 700 425 l 1
 700 597 l 25x3c
250 647 m 25
 750 647 l 25
 750 375 l 25
 315 375 l 25
 839 7 l 25
 760 7 l 25
 300 325 l 25
 300 187 l 25
 250 187 l 25xbc
 250 647 l 25
850 750 m 25
 150 750 l 25
 150 50 l 25
 850 50 l 25
 850 750 l 25
100 800 m 25
 900 800 l 25
 900 0 l 25
 100 0 l 25
 100 800 l 25
EndSplineSet
EndChar

StartChar: guillemotright
Encoding: 187 187 175
Width: 1000
VWidth: 0
Flags: HW
LayerCount: 2
Fore
SplineSet
100 650 m 25xa0
 525 400 l 25
 100 150 l 1
 100 200 l 1
 435 400 l 5
 100 585 l 1
 100 650 l 25xa0
475 650 m 25xa0
 900 400 l 25
 475 150 l 1
 475 200 l 1
 810 400 l 1
 475 585 l 1
 475 650 l 25xa0
EndSplineSet
EndChar

StartChar: guillemotleft
Encoding: 171 171 176
Width: 1000
VWidth: 0
Flags: HW
LayerCount: 2
Fore
SplineSet
900 650 m 25xa0
 475 400 l 25
 900 150 l 1
 900 200 l 1
 565 400 l 5
 900 585 l 1
 900 650 l 25xa0
525 650 m 25xa0
 100 400 l 25
 525 150 l 1
 525 200 l 1
 190 400 l 1
 525 585 l 1
 525 650 l 25xa0
EndSplineSet
EndChar

StartChar: degree
Encoding: 176 176 177
Width: 1000
VWidth: 0
Flags: HW
LayerCount: 2
Fore
SplineSet
595 1000 m 1
 415 1000 l 1
 415 950 l 1
 595 950 l 1
 595 1000 l 1
365 900 m 1
 365 1050 l 1
 645 1050 l 1
 645 900 l 25
 365 900 l 1
EndSplineSet
EndChar

StartChar: section
Encoding: 167 167 178
Width: 1000
VWidth: 0
Flags: HW
LayerCount: 2
Fore
SplineSet
850 425 m 1
 200 425 l 1
 200 750 l 1
 150 750 l 1
 150 375 l 1
 792 375 l 1
 430 50 l 1
 495 50 l 1
 850 355 l 1
 850 425 l 1
100 800 m 25
 900 800 l 25
 900 750 l 25
 250 750 l 25
 250 475 l 25
 900 475 l 25
 900 325 l 25
 525 0 l 25
 100 0 l 25
 100 50 l 25
 340 50 l 25
 655 325 l 25
 100 325 l 25
 100 800 l 25
EndSplineSet
EndChar
